<svg width="206" height="49" viewBox="0 0 206 49" fill="none" xmlns="http://www.w3.org/2000/svg">
<g clip-path="url(#clip0_1488_1384)">
<path fill-rule="evenodd" clip-rule="evenodd" d="M182.079 22.8668L195.657 2.2744L205.871 0.103516L189.719 24.4795L205.871 48.8347L196.338 46.912L195.657 46.7879L182.058 26.0508L172.843 40.1719L163.629 42.0326L175.312 24.4588L163.607 6.82292L172.822 8.68368L182.079 22.8668Z" fill="#3096FF"/>
<path d="M157.863 25.6373V41.9707H153.33V26.7538C153.33 24.9344 152.819 23.5492 151.819 22.5981C150.84 21.647 149.606 21.1715 148.116 21.1715C146.988 21.1715 145.882 21.461 144.775 22.0399C143.668 22.5981 142.775 23.3838 142.072 24.3968V41.9707H137.582V7.21582H142.072V19.9517C143.966 17.8635 146.307 16.8091 149.095 16.8091C150.691 16.8091 152.16 17.1605 153.5 17.8842C154.82 18.5871 155.884 19.6002 156.65 20.9234C157.458 22.2466 157.863 23.8179 157.863 25.6373Z" fill="white"/>
<path d="M127.197 19.0831H133.177V22.8046H127.197V41.7016H122.323V22.8046H118.344V19.0831H122.323V11.3506H127.197V19.0831Z" fill="white"/>
<path d="M109.214 18.7109H114.003L104.043 41.7017L97.1055 26.8156L90.7851 41.7017L80.7617 18.7109H85.5712L91.3597 31.8603L95.3818 22.4325L93.658 18.7109H97.8929L103.724 32.1704L109.214 18.7109Z" fill="white"/>
<path d="M66.3758 18.1113C62.9709 18.1113 60.0767 19.2485 57.7145 21.5227C56.544 22.6599 55.6502 23.9417 55.0756 25.3476C54.4798 26.7535 54.2031 28.2835 54.2031 29.9375C54.2031 33.2662 55.3736 36.078 57.7145 38.3523C60.098 40.6265 62.9922 41.7636 66.3758 41.7636C69.7595 41.7636 72.6537 40.6265 75.0372 38.3523C77.4207 36.078 78.6124 33.2662 78.6124 29.9375C78.6124 26.6088 77.4207 23.797 75.0372 21.5227C72.6537 19.2485 69.7808 18.1113 66.3758 18.1113ZM72.143 35.6025C70.5895 37.1118 68.6529 37.8767 66.3758 37.8767C64.1201 37.8767 62.2048 37.1118 60.6513 35.6025C59.0978 34.0932 58.3104 32.2117 58.3104 29.9375C58.3104 27.6839 59.0978 25.8025 60.6513 24.2932C62.2048 22.7839 64.1201 22.0189 66.3758 22.0189C68.6742 22.0189 70.5895 22.7839 72.143 24.2932C73.6965 25.8025 74.4839 27.6839 74.4839 29.9375C74.4839 32.2117 73.6965 34.0932 72.143 35.6025Z" fill="white"/>
<path d="M50.4154 18.4838L50.5006 18.5045V22.6395H48.415C46.3508 22.6395 44.6696 23.2391 43.5204 24.3762C42.3712 25.5133 41.7328 27.1673 41.7328 29.2969V41.8053H37.0723V18.7112H41.4349L41.6902 21.7505C42.7543 19.6002 45.0101 18.1943 48.032 18.1943C48.8407 18.1943 49.5004 18.2977 50.4154 18.4838Z" fill="white"/>
<path d="M18.1736 22.6185H29.942V38.4349C28.878 39.2412 27.1968 39.9855 24.8772 40.6678C22.6001 41.3501 20.4933 41.7016 18.5567 41.7016C14.8964 41.7016 11.6617 40.9986 8.87385 39.5514C6.08604 38.0834 3.93666 36.0986 2.40443 33.5763C0.914757 31.0539 0.169922 28.2214 0.169922 25.0788C0.169922 21.3986 0.9786 18.2353 2.59596 15.5476C4.21331 12.8391 6.40525 10.7716 9.1505 9.34504C11.8957 7.91846 14.9176 7.19482 18.1949 7.19482C20.1741 7.19482 22.0255 7.42226 23.7918 7.89778C25.5369 8.33196 27.1117 8.93153 28.5162 9.67584L26.0902 13.418C25.2177 13.0252 24.1962 12.6944 23.0257 12.3843C21.4722 11.9501 20.0676 11.7227 18.7908 11.7227C16.0668 11.7227 13.6621 12.2602 11.5553 13.3147C9.46972 14.3691 7.87364 15.8784 6.74575 17.8425C5.61786 19.8066 5.04327 22.0809 5.04327 24.7066C5.04327 27.1463 5.61786 29.2965 6.74575 31.1986C7.87364 33.1007 9.491 34.5687 11.5553 35.6231C13.6195 36.6568 16.003 37.1737 18.6418 37.1737C19.8761 37.1737 21.0679 37.0704 22.2383 36.8429C23.4088 36.5948 24.3877 36.2434 25.1538 35.8092V26.9395H18.1524V22.6185H18.1736Z" fill="white"/>
</g>
<defs>
<clipPath id="clip0_1488_1384">
<rect width="206" height="49" fill="white"/>
</clipPath>
</defs>
</svg>
