<svg width="45" height="148" viewBox="0 0 45 148" fill="none" xmlns="http://www.w3.org/2000/svg">
<path d="M23 106L23 1" stroke="url(#paint0_linear_1149_583)" stroke-width="2" stroke-linecap="round"/>
<circle cx="22.5" cy="125.5" r="22.5" fill="url(#paint1_linear_1149_583)"/>
<path d="M24.272 122.328C26.12 121.944 28.472 120.84 28.472 118.416C28.472 116.184 26.672 114.912 24.104 114.912C20.912 114.912 19.112 116.664 18.008 118.968L18.656 119.472C19.496 118.464 20.456 117.84 21.848 117.84C23.36 117.84 24.128 118.704 24.128 120C24.128 121.464 23.288 122.424 20.744 123.456L21.008 124.152H21.464C23.888 124.152 25.232 125.664 25.232 128.016C25.232 130.08 24.464 131.28 23.072 131.28C21.512 131.28 20.744 129.984 20.744 128.376C20.744 127.704 20.84 127.224 21.008 126.816H18.224C17.672 127.08 17.12 127.824 17.12 128.808C17.12 130.68 19.112 132.24 22.952 132.24C26.336 132.24 29.552 130.488 29.552 127.008C29.552 124.248 27.464 122.424 24.272 122.328Z" fill="white"/>
<defs>
<linearGradient id="paint0_linear_1149_583" x1="22" y1="93.5658" x2="22" y2="-9.24391" gradientUnits="userSpaceOnUse">
<stop stop-color="#0367E2"/>
<stop offset="1" stop-color="#0367E2" stop-opacity="0"/>
</linearGradient>
<linearGradient id="paint1_linear_1149_583" x1="46" y1="125" x2="0" y2="125" gradientUnits="userSpaceOnUse">
<stop stop-color="#01B3FF"/>
<stop offset="1" stop-color="#0266E1"/>
</linearGradient>
</defs>
</svg>
