<svg width="45" height="148" viewBox="0 0 45 148" fill="none" xmlns="http://www.w3.org/2000/svg">
<path d="M23 106L23 1" stroke="url(#paint0_linear_240_432)" stroke-width="2" stroke-linecap="round"/>
<circle cx="22.5" cy="125.5" r="22.5" fill="url(#paint1_linear_240_432)"/>
<path d="M21.296 128.256C24.944 125.688 29 123.024 29 119.424C29 116.616 27.056 114.912 24.008 114.912C20.744 114.912 18.992 116.784 17.792 119.04L18.512 119.544C19.28 118.632 20.384 117.984 21.728 117.984C23.6 117.984 24.584 119.208 24.584 120.96C24.584 123 23.672 124.704 21.728 126.624L17.12 131.208V132H29.048L29.6 125.856H28.856C27.632 128.136 27.08 128.256 25.496 128.256H21.296Z" fill="white"/>
<defs>
<linearGradient id="paint0_linear_240_432" x1="22" y1="93.5658" x2="22" y2="-9.2439" gradientUnits="userSpaceOnUse">
<stop stop-color="#0367E2"/>
<stop offset="1" stop-color="#0367E2" stop-opacity="0"/>
</linearGradient>
<linearGradient id="paint1_linear_240_432" x1="46" y1="125" x2="0" y2="125" gradientUnits="userSpaceOnUse">
<stop stop-color="#01B3FF"/>
<stop offset="1" stop-color="#0266E1"/>
</linearGradient>
</defs>
</svg>
