<svg width="48" height="48" viewBox="0 0 48 48" fill="none" xmlns="http://www.w3.org/2000/svg">
<rect x="0.434354" y="0.434354" width="47.1313" height="47.1313" rx="3.90919" fill="#121212" stroke="#323232" stroke-width="0.868709"></rect>
<path d="M33.6112 21.527C33.241 21.14 32.8579 20.7412 32.7136 20.3906C32.58 20.0695 32.5721 19.5371 32.5643 19.0215C32.5496 18.0629 32.5338 16.9767 31.7786 16.2214C31.0233 15.4662 29.9371 15.4504 28.9785 15.4357C28.4629 15.4279 27.9305 15.42 27.6094 15.2864C27.2597 15.1421 26.86 14.759 26.473 14.3887C25.7954 13.7376 25.0254 13 24 13C22.9746 13 22.2056 13.7376 21.527 14.3887C21.14 14.759 20.7412 15.1421 20.3906 15.2864C20.0714 15.42 19.5371 15.4279 19.0215 15.4357C18.0629 15.4504 16.9767 15.4662 16.2214 16.2214C15.4662 16.9767 15.4554 18.0629 15.4357 19.0215C15.4279 19.5371 15.42 20.0695 15.2864 20.3906C15.1421 20.7403 14.759 21.14 14.3887 21.527C13.7376 22.2046 13 22.9746 13 24C13 25.0254 13.7376 25.7944 14.3887 26.473C14.759 26.86 15.1421 27.2587 15.2864 27.6094C15.42 27.9305 15.4279 28.4629 15.4357 28.9785C15.4504 29.9371 15.4662 31.0233 16.2214 31.7786C16.9767 32.5338 18.0629 32.5496 19.0215 32.5643C19.5371 32.5721 20.0695 32.58 20.3906 32.7136C20.7403 32.8579 21.14 33.241 21.527 33.6112C22.2046 34.2624 22.9746 35 24 35C25.0254 35 25.7944 34.2624 26.473 33.6112C26.86 33.241 27.2587 32.8579 27.6094 32.7136C27.9305 32.58 28.4629 32.5721 28.9785 32.5643C29.9371 32.5496 31.0233 32.5338 31.7786 31.7786C32.5338 31.0233 32.5496 29.9371 32.5643 28.9785C32.5721 28.4629 32.58 27.9305 32.7136 27.6094C32.8579 27.2597 33.241 26.86 33.6112 26.473C34.2624 25.7954 35 25.0254 35 24C35 22.9746 34.2624 22.2056 33.6112 21.527ZM28.4845 22.1988L22.9845 27.6988C22.9115 27.7718 22.8248 27.8298 22.7295 27.8693C22.6341 27.9088 22.5318 27.9292 22.4286 27.9292C22.3253 27.9292 22.2231 27.9088 22.1277 27.8693C22.0323 27.8298 21.9456 27.7718 21.8727 27.6988L19.5155 25.3416C19.3681 25.1942 19.2853 24.9942 19.2853 24.7857C19.2853 24.5772 19.3681 24.3773 19.5155 24.2298C19.663 24.0824 19.8629 23.9996 20.0714 23.9996C20.2799 23.9996 20.4799 24.0824 20.6273 24.2298L22.4286 26.0321L27.3727 21.087C27.4457 21.014 27.5323 20.9561 27.6277 20.9165C27.7231 20.877 27.8253 20.8567 27.9286 20.8567C28.0318 20.8567 28.134 20.877 28.2294 20.9165C28.3248 20.9561 28.4115 21.014 28.4845 21.087C28.5575 21.16 28.6154 21.2466 28.6549 21.342C28.6944 21.4374 28.7147 21.5396 28.7147 21.6429C28.7147 21.7461 28.6944 21.8483 28.6549 21.9437C28.6154 22.0391 28.5575 22.1257 28.4845 22.1988Z" fill="url(#paint0_linear_1366_549)"></path>
<defs>
<linearGradient id="paint0_linear_1366_549" x1="24" y1="13" x2="24" y2="36.9643" gradientUnits="userSpaceOnUse">
<stop stop-color="#DADADA"></stop>
<stop offset="1" stop-color="#DADADA" stop-opacity="0"></stop>
</linearGradient>
</defs>
</svg>