<svg xmlns="http://www.w3.org/2000/svg" width="59" height="10" viewBox="0 0 59 76" fill="none">
<g filter="url(#filter0_d_491_611)">
<mask id="path-1-inside-1_491_611" fill="white">
<path d="M22.446 52.8367H37.2453C42.8268 52.8367 44.7719 52.4139 49.0848 44.38H51.7064L49.7614 66.0293H7.73121V63.2386L23.9682 47.0861C30.8182 40.3207 34.0318 34.3164 34.0318 27.1281C34.0318 20.9547 30.5645 16.6417 23.9682 16.6417C19.2324 16.6417 15.3423 18.9251 12.6361 22.1386L10.0991 20.3627C14.3275 12.4134 20.5009 5.81708 32.0021 5.81708C42.7422 5.81708 49.5922 11.8214 49.5922 21.7158C49.5922 34.401 35.3003 43.788 22.446 52.8367Z"/>
</mask>
<path d="M22.446 52.8367L21.2947 51.2013L16.1304 54.8367H22.446V52.8367ZM49.0848 44.38V42.38H47.8885L47.3227 43.434L49.0848 44.38ZM51.7064 44.38L53.6984 44.5589L53.8942 42.38H51.7064V44.38ZM49.7614 66.0293V68.0293H51.5897L51.7533 66.2083L49.7614 66.0293ZM7.73121 66.0293H5.73121V68.0293H7.73121V66.0293ZM7.73121 63.2386L6.32069 61.8207L5.73121 62.4071V63.2386H7.73121ZM23.9682 47.0861L22.5628 45.6631L22.5577 45.6682L23.9682 47.0861ZM12.6361 22.1386L11.4892 23.7771L12.9877 24.8261L14.166 23.4269L12.6361 22.1386ZM10.0991 20.3627L8.33336 19.4235L7.50215 20.9862L8.95218 22.0012L10.0991 20.3627ZM22.446 54.8367H37.2453V50.8367H22.446V54.8367ZM37.2453 54.8367C39.9888 54.8367 42.4448 54.7705 44.7239 53.3024C46.922 51.8864 48.6901 49.3435 50.847 45.3259L47.3227 43.434C45.1665 47.4503 43.8056 49.1358 42.5577 49.9397C41.3907 50.6915 40.0834 50.8367 37.2453 50.8367V54.8367ZM49.0848 46.38H51.7064V42.38H49.0848V46.38ZM49.7144 44.201L47.7694 65.8503L51.7533 66.2083L53.6984 44.5589L49.7144 44.201ZM49.7614 64.0293H7.73121V68.0293H49.7614V64.0293ZM9.73121 66.0293V63.2386H5.73121V66.0293H9.73121ZM9.14172 64.6565L25.3787 48.504L22.5577 45.6682L6.32069 61.8207L9.14172 64.6565ZM25.3736 48.5091C32.4315 41.5384 36.0318 35.0528 36.0318 27.1281H32.0318C32.0318 33.58 29.2049 39.1031 22.5628 45.6632L25.3736 48.5091ZM36.0318 27.1281C36.0318 23.6805 35.0612 20.5298 32.9497 18.2204C30.8138 15.8843 27.7226 14.6417 23.9682 14.6417V18.6417C26.8101 18.6417 28.7507 19.5557 29.9975 20.9194C31.2687 22.3098 32.0318 24.4023 32.0318 27.1281H36.0318ZM23.9682 14.6417C18.5379 14.6417 14.1195 17.2722 11.1063 20.8504L14.166 23.4269C16.5651 20.578 19.927 18.6417 23.9682 18.6417V14.6417ZM13.7831 20.5002L11.246 18.7243L8.95218 22.0012L11.4892 23.7771L13.7831 20.5002ZM11.8648 21.302C13.9056 17.4654 16.3386 14.107 19.5264 11.7066C22.6769 9.33421 26.6699 7.81708 32.0021 7.81708V3.81708C25.8331 3.81708 20.9888 5.59809 17.1202 8.5112C13.2889 11.3963 10.521 15.3107 8.33336 19.4235L11.8648 21.302ZM32.0021 7.81708C37.0111 7.81708 40.8892 9.21467 43.4899 11.5454C46.0644 13.8527 47.5922 17.2554 47.5922 21.7158H51.5922C51.5922 16.2818 49.695 11.7352 46.1595 8.56663C42.6502 5.42165 37.7333 3.81708 32.0021 3.81708V7.81708ZM47.5922 21.7158C47.5922 27.2572 44.4772 32.287 39.4414 37.2098C34.4057 42.1324 27.7855 46.6322 21.2947 51.2013L23.5972 54.4722C29.9608 49.9926 36.9137 45.2745 42.2375 40.0701C47.5612 34.8659 51.5922 28.8596 51.5922 21.7158H47.5922Z" fill="url(#paint0_linear_491_611)" mask="url(#path-1-inside-1_491_611)"/>
</g>
<defs>
<filter id="filter0_d_491_611" x="0.518964" y="0.381538" width="58.4001" height="74.6374" filterUnits="userSpaceOnUse" color-interpolation-filters="sRGB">
<feFlood flood-opacity="0" result="BackgroundImageFix"/>
<feColorMatrix in="SourceAlpha" type="matrix" values="0 0 0 0 0 0 0 0 0 0 0 0 0 0 0 0 0 0 127 0" result="hardAlpha"/>
<feOffset dy="1.77713"/>
<feGaussianBlur stdDeviation="3.60624"/>
<feComposite in2="hardAlpha" operator="out"/>
<feColorMatrix type="matrix" values="0 0 0 0 0 0 0 0 0 0 0 0 0 0 0 0 0 0 0.25 0"/>
<feBlend mode="normal" in2="BackgroundImageFix" result="effect1_dropShadow_491_611"/>
<feBlend mode="normal" in="SourceGraphic" in2="effect1_dropShadow_491_611" result="shape"/>
</filter>
<linearGradient id="paint0_linear_491_611" x1="30.7627" y1="7.0293" x2="30.7627" y2="66.0293" gradientUnits="userSpaceOnUse">
<stop offset="0.389182" stop-color="white"/>
<stop offset="0.910813" stop-color="white" stop-opacity="0"/>
</linearGradient>
</defs>
</svg>