<svg xmlns="http://www.w3.org/2000/svg" width="328" height="170" viewBox="0 0 328 170" fill="none">
<path d="M40.1692 13.0468C44.026 13.0468 47.098 14.3025 49.3851 16.8139C51.7172 19.3253 52.8832 22.6888 52.8832 26.9044V47.6235H44.2054V27.5098C44.2054 25.4917 43.712 23.9221 42.7254 22.801C41.7388 21.6798 40.3485 21.1192 38.5547 21.1192C36.5814 21.1192 35.0342 21.7695 33.9131 23.07C32.8367 24.3706 32.2986 26.2541 32.2986 28.7207V47.6235H23.6208V27.5098C23.6208 25.4917 23.1275 23.9221 22.1408 22.801C21.1542 21.6798 19.764 21.1192 17.9701 21.1192C16.0417 21.1192 14.4945 21.7695 13.3285 23.07C12.2073 24.3706 11.6467 26.2541 11.6467 28.7207V47.6235H2.96892V13.9886H11.6467V17.5539C13.6648 14.5492 16.7817 13.0468 20.9972 13.0468C25.1231 13.0468 28.1727 14.6613 30.146 17.8903C32.3883 14.6613 35.7293 13.0468 40.1692 13.0468ZM83.7979 13.9886H92.4757V47.6235H83.7979V43.6546C81.1968 46.9284 77.5418 48.5653 72.8329 48.5653C68.3482 48.5653 64.4914 46.8611 61.2625 43.4528C58.0784 39.9996 56.4863 35.784 56.4863 30.8061C56.4863 25.8281 58.0784 21.6349 61.2625 18.2266C64.4914 14.7734 68.3482 13.0468 72.8329 13.0468C77.5418 13.0468 81.1968 14.6837 83.7979 17.9575V13.9886ZM67.7876 37.6676C69.5367 39.4166 71.7566 40.2911 74.4474 40.2911C77.1382 40.2911 79.3581 39.4166 81.1071 37.6676C82.9009 35.8737 83.7979 33.5866 83.7979 30.8061C83.7979 28.0256 82.9009 25.7608 81.1071 24.0118C79.3581 22.2179 77.1382 21.321 74.4474 21.321C71.7566 21.321 69.5367 22.2179 67.7876 24.0118C66.0386 25.7608 65.1641 28.0256 65.1641 30.8061C65.1641 33.5866 66.0386 35.8737 67.7876 37.6676ZM129.338 47.6235H119.248L107.004 32.3533V47.6235H98.3266V0.534625H107.004V28.788L118.575 13.9886H128.934L115.413 30.6043L129.338 47.6235ZM136.553 34.3714C137.719 38.5869 140.881 40.6947 146.038 40.6947C149.357 40.6947 151.868 39.5736 153.572 37.3312L160.569 41.3674C157.25 46.166 152.362 48.5653 145.904 48.5653C140.343 48.5653 135.881 46.8836 132.517 43.5201C129.154 40.1566 127.472 35.9186 127.472 30.8061C127.472 25.7384 129.131 21.5228 132.45 18.1593C135.768 14.751 140.029 13.0468 145.231 13.0468C150.164 13.0468 154.223 14.751 157.407 18.1593C160.636 21.5677 162.25 25.7833 162.25 30.8061C162.25 31.9272 162.138 33.1157 161.914 34.3714H136.553ZM136.419 27.6444H153.572C153.079 25.3572 152.048 23.653 150.478 22.5319C148.953 21.4107 147.204 20.8501 145.231 20.8501C142.899 20.8501 140.971 21.4556 139.446 22.6664C137.921 23.8324 136.912 25.4917 136.419 27.6444ZM10.974 77.5409C10.974 78.4379 11.557 79.1778 12.7231 79.7608C13.9339 80.299 15.3914 80.7923 17.0956 81.2408C18.7998 81.6444 20.5039 82.1825 22.2081 82.8552C23.9123 83.4831 25.3474 84.5594 26.5134 86.0842C27.7242 87.609 28.3297 89.515 28.3297 91.8021C28.3297 95.2553 27.0291 97.9237 24.428 99.8072C21.8718 101.646 18.6652 102.565 14.8084 102.565C7.90205 102.565 3.19316 99.8969 0.681747 94.5602L8.21597 90.3222C9.2026 93.2372 11.4001 94.6947 14.8084 94.6947C17.9028 94.6947 19.45 93.7305 19.45 91.8021C19.45 90.9052 18.8446 90.1877 17.6338 89.6495C16.4677 89.0665 15.0327 88.5508 13.3285 88.1023C11.6243 87.6538 9.92014 87.0932 8.21597 86.4205C6.5118 85.7478 5.05429 84.694 3.84343 83.2589C2.67742 81.7789 2.09441 79.9402 2.09441 77.7427C2.09441 74.4241 3.30527 71.823 5.72699 69.9394C8.19355 68.011 11.2431 67.0468 14.8757 67.0468C17.6113 67.0468 20.1003 67.6747 22.3426 68.9304C24.585 70.1412 26.3564 71.8903 27.657 74.1774L20.2573 78.2136C19.181 75.9264 17.3871 74.7829 14.8757 74.7829C13.7545 74.7829 12.8127 75.0295 12.0504 75.5228C11.3328 76.0161 10.974 76.6888 10.974 77.5409ZM38.7649 88.3714C39.9309 92.5869 43.0926 94.6947 48.25 94.6947C51.5686 94.6947 54.08 93.5736 55.7842 91.3312L62.7802 95.3674C59.4616 100.166 54.5733 102.565 48.1154 102.565C42.5544 102.565 38.0922 100.884 34.7287 97.5201C31.3652 94.1566 29.6835 89.9186 29.6835 84.8061C29.6835 79.7384 31.3428 75.5228 34.6614 72.1593C37.9801 68.751 42.2405 67.0468 47.4427 67.0468C52.3758 67.0468 56.4345 68.751 59.6186 72.1593C62.8475 75.5677 64.462 79.7833 64.462 84.8061C64.462 85.9272 64.3499 87.1157 64.1256 88.3714H38.7649ZM38.6304 81.6444H55.7842C55.2909 79.3572 54.2594 77.653 52.6898 76.5319C51.165 75.4107 49.416 74.8501 47.4427 74.8501C45.1107 74.8501 43.1823 75.4556 41.6575 76.6664C40.1327 77.8324 39.1237 79.4917 38.6304 81.6444ZM77.1797 73.7738C77.9869 71.6212 79.3099 70.0067 81.1486 68.9304C83.0321 67.8541 85.1175 67.3159 87.4047 67.3159V77.0028C84.7587 76.6888 82.3819 77.227 80.2741 78.6172C78.2111 80.0075 77.1797 82.3171 77.1797 85.546V101.624H68.5019V67.9886H77.1797V73.7738ZM96.546 88.3714C97.712 92.5869 100.874 94.6947 106.031 94.6947C109.35 94.6947 111.861 93.5736 113.565 91.3312L120.561 95.3674C117.243 100.166 112.354 102.565 105.897 102.565C100.336 102.565 95.8733 100.884 92.5098 97.5201C89.1463 94.1566 87.4646 89.9186 87.4646 84.8061C87.4646 79.7384 89.1239 75.5228 92.4426 72.1593C95.7612 68.751 100.022 67.0468 105.224 67.0468C110.157 67.0468 114.216 68.751 117.4 72.1593C120.629 75.5677 122.243 79.7833 122.243 84.8061C122.243 85.9272 122.131 87.1157 121.907 88.3714H96.546ZM96.4115 81.6444H113.565C113.072 79.3572 112.041 77.653 110.471 76.5319C108.946 75.4107 107.197 74.8501 105.224 74.8501C102.892 74.8501 100.963 75.4556 99.4386 76.6664C97.9139 77.8324 96.9048 79.4917 96.4115 81.6444ZM144.984 67.0468C148.661 67.0468 151.689 68.2801 154.065 70.7467C156.487 73.2132 157.698 76.6216 157.698 80.9717V101.624H149.02V82.048C149.02 79.8057 148.415 78.1015 147.204 76.9355C145.993 75.7246 144.379 75.1192 142.36 75.1192C140.118 75.1192 138.324 75.8143 136.979 77.2046C135.634 78.5948 134.961 80.6802 134.961 83.4607V101.624H126.283V67.9886H134.961V71.7557C137.069 68.6165 140.41 67.0468 144.984 67.0468ZM188.585 54.5346H197.263V101.624H188.585V97.6546C186.029 100.928 182.396 102.565 177.687 102.565C173.158 102.565 169.278 100.861 166.049 97.4528C162.865 93.9996 161.273 89.784 161.273 84.8061C161.273 79.8281 162.865 75.6349 166.049 72.2266C169.278 68.7734 173.158 67.0468 177.687 67.0468C182.396 67.0468 186.029 68.6837 188.585 71.9575V54.5346ZM172.575 91.6676C174.369 93.4166 176.611 94.2911 179.302 94.2911C181.992 94.2911 184.212 93.4166 185.961 91.6676C187.71 89.8737 188.585 87.5866 188.585 84.8061C188.585 82.0256 187.71 79.7608 185.961 78.0118C184.212 76.2179 181.992 75.321 179.302 75.321C176.611 75.321 174.369 76.2179 172.575 78.0118C170.826 79.7608 169.951 82.0256 169.951 84.8061C169.951 87.5866 170.826 89.8737 172.575 91.6676ZM207.486 63.9524C206.051 63.9524 204.795 63.4367 203.719 62.4052C202.688 61.3289 202.172 60.0732 202.172 58.6381C202.172 57.203 202.688 55.9473 203.719 54.871C204.795 53.7947 206.051 53.2565 207.486 53.2565C208.966 53.2565 210.222 53.7947 211.253 54.871C212.33 55.9473 212.868 57.203 212.868 58.6381C212.868 60.0732 212.33 61.3289 211.253 62.4052C210.222 63.4367 208.966 63.9524 207.486 63.9524ZM203.181 101.624V67.9886H211.859V101.624H203.181ZM237.359 67.0468C241.888 67.0468 245.745 68.7734 248.929 72.2266C252.158 75.6349 253.773 79.8281 253.773 84.8061C253.773 89.784 252.158 93.9996 248.929 97.4528C245.745 100.861 241.888 102.565 237.359 102.565C232.65 102.565 229.017 100.928 226.461 97.6546V115.078H217.783V67.9886H226.461V71.9575C229.017 68.6837 232.65 67.0468 237.359 67.0468ZM229.084 91.6676C230.834 93.4166 233.053 94.2911 235.744 94.2911C238.435 94.2911 240.655 93.4166 242.404 91.6676C244.198 89.8737 245.095 87.5866 245.095 84.8061C245.095 82.0256 244.198 79.7608 242.404 78.0118C240.655 76.2179 238.435 75.321 235.744 75.321C233.053 75.321 230.834 76.2179 229.084 78.0118C227.335 79.7608 226.461 82.0256 226.461 84.8061C226.461 87.5866 227.335 89.8737 229.084 91.6676ZM262.18 63.9524C260.745 63.9524 259.489 63.4367 258.413 62.4052C257.381 61.3289 256.865 60.0732 256.865 58.6381C256.865 57.203 257.381 55.9473 258.413 54.871C259.489 53.7947 260.745 53.2565 262.18 53.2565C263.66 53.2565 264.915 53.7947 265.947 54.871C267.023 55.9473 267.561 57.203 267.561 58.6381C267.561 60.0732 267.023 61.3289 265.947 62.4052C264.915 63.4367 263.66 63.9524 262.18 63.9524ZM257.874 101.624V67.9886H266.552V101.624H257.874ZM291.716 76.3301H284.114V90.3222C284.114 91.4882 284.406 92.3403 284.989 92.8785C285.572 93.4166 286.424 93.7305 287.545 93.8202C288.666 93.8651 290.057 93.8427 291.716 93.753V101.624C285.751 102.296 281.536 101.736 279.069 99.9418C276.647 98.1479 275.437 94.9414 275.437 90.3222V76.3301H269.584V67.9886H275.437V61.1943L284.114 58.5708V67.9886H291.716V76.3301ZM318.469 67.9886H327.752L315.509 101.624C313.76 106.467 311.428 109.965 308.513 112.118C305.643 114.315 302.055 115.302 297.75 115.078V107.005C300.082 107.05 301.92 106.557 303.266 105.525C304.656 104.494 305.755 102.834 306.562 100.547L292.772 67.9886H302.257L311.002 90.5913L318.469 67.9886ZM21.6699 121.047C25.3474 121.047 28.3745 122.28 30.7514 124.747C33.1731 127.213 34.384 130.622 34.384 134.972V155.624H25.7061V136.048C25.7061 133.806 25.1007 132.102 23.8899 130.935C22.679 129.725 21.0645 129.119 19.0464 129.119C16.8041 129.119 15.0102 129.814 13.6648 131.205C12.3194 132.595 11.6467 134.68 11.6467 137.461V155.624H2.96892V108.535H11.6467V125.756C13.7545 122.616 17.0956 121.047 21.6699 121.047ZM65.3381 121.989H74.0159V155.624H65.3381V151.655C62.737 154.928 59.082 156.565 54.3731 156.565C49.8884 156.565 46.0316 154.861 42.8027 151.453C39.6186 148 38.0265 143.784 38.0265 138.806C38.0265 133.828 39.6186 129.635 42.8027 126.227C46.0316 122.773 49.8884 121.047 54.3731 121.047C59.082 121.047 62.737 122.684 65.3381 125.958V121.989ZM49.3278 145.668C51.0769 147.417 53.2968 148.291 55.9876 148.291C58.6784 148.291 60.8983 147.417 62.6473 145.668C64.4411 143.874 65.3381 141.587 65.3381 138.806C65.3381 136.026 64.4411 133.761 62.6473 132.012C60.8983 130.218 58.6784 129.321 55.9876 129.321C53.2968 129.321 51.0769 130.218 49.3278 132.012C47.5788 133.761 46.7043 136.026 46.7043 138.806C46.7043 141.587 47.5788 143.874 49.3278 145.668ZM99.4423 121.047C103.972 121.047 107.829 122.773 111.013 126.227C114.242 129.635 115.856 133.828 115.856 138.806C115.856 143.784 114.242 148 111.013 151.453C107.829 154.861 103.972 156.565 99.4423 156.565C94.7334 156.565 91.1009 154.928 88.5446 151.655V169.078H79.8668V121.989H88.5446V125.958C91.1009 122.684 94.7334 121.047 99.4423 121.047ZM91.1681 145.668C92.9171 147.417 95.137 148.291 97.8278 148.291C100.519 148.291 102.739 147.417 104.488 145.668C106.281 143.874 107.178 141.587 107.178 138.806C107.178 136.026 106.281 133.761 104.488 132.012C102.739 130.218 100.519 129.321 97.8278 129.321C95.137 129.321 92.9171 130.218 91.1681 132.012C89.4191 133.761 88.5446 136.026 88.5446 138.806C88.5446 141.587 89.4191 143.874 91.1681 145.668ZM139.534 121.047C144.063 121.047 147.92 122.773 151.104 126.227C154.333 129.635 155.947 133.828 155.947 138.806C155.947 143.784 154.333 148 151.104 151.453C147.92 154.861 144.063 156.565 139.534 156.565C134.825 156.565 131.192 154.928 128.636 151.655V169.078H119.958V121.989H128.636V125.958C131.192 122.684 134.825 121.047 139.534 121.047ZM131.259 145.668C133.008 147.417 135.228 148.291 137.919 148.291C140.61 148.291 142.83 147.417 144.579 145.668C146.373 143.874 147.27 141.587 147.27 138.806C147.27 136.026 146.373 133.761 144.579 132.012C142.83 130.218 140.61 129.321 137.919 129.321C135.228 129.321 133.008 130.218 131.259 132.012C129.51 133.761 128.636 136.026 128.636 138.806C128.636 141.587 129.51 143.874 131.259 145.668ZM167.382 142.371C168.548 146.587 171.709 148.695 176.867 148.695C180.185 148.695 182.697 147.574 184.401 145.331L191.397 149.367C188.078 154.166 183.19 156.565 176.732 156.565C171.171 156.565 166.709 154.884 163.346 151.52C159.982 148.157 158.3 143.919 158.3 138.806C158.3 133.738 159.96 129.523 163.278 126.159C166.597 122.751 170.857 121.047 176.06 121.047C180.993 121.047 185.051 122.751 188.235 126.159C191.464 129.568 193.079 133.783 193.079 138.806C193.079 139.927 192.967 141.116 192.742 142.371H167.382ZM167.247 135.644H184.401C183.908 133.357 182.876 131.653 181.307 130.532C179.782 129.411 178.033 128.85 176.06 128.85C173.728 128.85 171.799 129.456 170.274 130.666C168.75 131.832 167.741 133.492 167.247 135.644ZM215.82 121.047C219.497 121.047 222.524 122.28 224.901 124.747C227.323 127.213 228.534 130.622 228.534 134.972V155.624H219.856V136.048C219.856 133.806 219.25 132.102 218.04 130.935C216.829 129.725 215.214 129.119 213.196 129.119C210.954 129.119 209.16 129.814 207.815 131.205C206.469 132.595 205.797 134.68 205.797 137.461V155.624H197.119V121.989H205.797V125.756C207.904 122.616 211.245 121.047 215.82 121.047Z" fill="url(#paint0_radial_337_231)"/>
<defs>
<radialGradient id="paint0_radial_337_231" cx="0" cy="0" r="1" gradientUnits="userSpaceOnUse" gradientTransform="translate(117.251 163.337) rotate(-90) scale(162.713 345.372)">
<stop offset="0.0973604" stop-color="#B4B4B4"/>
<stop offset="0.880069" stop-color="#2C2C2C"/>
</radialGradient>
</defs>
</svg>